<?xml version="1.0" encoding="utf-8"?>
<!-- Generator: Adobe Illustrator 26.1.0, SVG Export Plug-In . SVG Version: 6.00 Build 0)  -->
<svg version="1.1" id="Layer_1" xmlns="http://www.w3.org/2000/svg" xmlns:xlink="http://www.w3.org/1999/xlink" x="0px" y="0px"
	 viewBox="0 0 234.3 234.3" style="enable-background:new 0 0 234.3 234.3;" xml:space="preserve">
<style type="text/css">
	.st0{fill:none;stroke:#000000;stroke-miterlimit:10;}
	.st1{fill:#FFFFFF;stroke:#000000;stroke-miterlimit:10;}
</style>
<g>
	<path class="st0" d="M119.5,117.1c0,1.3-1.1,2.4-2.4,2.4c-1.3,0-2.4-1.1-2.4-2.4s1.1-2.4,2.4-2.4
		C118.5,114.7,119.5,115.8,119.5,117.1z"/>
	<g>
		<path class="st0" d="M128.3,61.3c0,6.2-5,11.2-11.2,11.2c-6.2,0-11.2-5-11.2-11.2c0-6.2,5-11.2,11.2-11.2
			C123.3,50.1,128.3,55.1,128.3,61.3z"/>
		<path class="st0" d="M128.3,173c0,6.2-5,11.2-11.2,11.2c-6.2,0-11.2-5-11.2-11.2c0-6.2,5-11.2,11.2-11.2
			C123.3,161.8,128.3,166.8,128.3,173z"/>
		<path class="st0" d="M184.2,117.1c0,6.2-5,11.2-11.2,11.2c-6.2,0-11.2-5-11.2-11.2c0-6.2,5-11.2,11.2-11.2
			C179.2,106,184.2,111,184.2,117.1z"/>
		<path class="st0" d="M72.4,117.1c0,6.2-5,11.2-11.2,11.2c-6.2,0-11.2-5-11.2-11.2c0-6.2,5-11.2,11.2-11.2
			C67.4,106,72.4,111,72.4,117.1z"/>
	</g>
	<path class="st0" d="M233.7,106.9c-0.5-5.8-3.5-10.7-7.8-13.9c2.5-4.7,3.2-10.5,1.2-15.9c-2-5.4-6.1-9.4-11.1-11.4
		c1.2-5.2,0.3-10.9-3-15.7c-3.3-4.7-8.4-7.5-13.7-8.2c-0.2-5.4-2.5-10.6-6.9-14.4c-4.4-3.7-10-5.1-15.3-4.3
		c-1.5-5.1-5.2-9.6-10.4-12.1c-5.2-2.4-11-2.3-15.9-0.2c-2.8-4.6-7.5-8-13.2-9c-5.7-1-11.2,0.6-15.5,3.9c-3.9-3.7-9.3-5.8-15.1-5.2
		C101.2,1.1,96.2,4.1,93,8.4c-4.7-2.5-10.5-3.2-15.9-1.2c-5.4,2-9.4,6.1-11.4,11.1c-5.2-1.2-10.9-0.3-15.7,3
		c-4.7,3.3-7.5,8.4-8.2,13.7c-5.4,0.2-10.6,2.5-14.4,6.9c-3.7,4.4-5.1,10-4.3,15.3c-5.1,1.5-9.6,5.2-12.1,10.4
		c-2.4,5.2-2.3,11-0.2,15.9c-4.6,2.8-8,7.5-9,13.2c-1,5.7,0.6,11.2,3.9,15.5c-3.7,3.9-5.8,9.3-5.2,15.1c0.5,5.8,3.5,10.7,7.8,13.9
		c-2.5,4.7-3.2,10.5-1.2,15.9c2,5.4,6.1,9.4,11.1,11.4c-1.2,5.2-0.3,10.9,3,15.7c3.3,4.7,8.4,7.5,13.7,8.2
		c0.2,5.4,2.5,10.6,6.9,14.4c4.4,3.7,10,5.1,15.3,4.3c1.5,5.1,5.2,9.6,10.4,12.1c5.2,2.4,11,2.3,15.9,0.2c2.8,4.6,7.5,8,13.2,9
		c5.7,1,11.2-0.6,15.5-3.9c3.9,3.7,9.3,5.8,15.1,5.2c5.8-0.5,10.7-3.5,13.9-7.8c4.7,2.5,10.5,3.2,15.9,1.2c5.4-2,9.4-6.1,11.4-11.1
		c5.2,1.2,10.9,0.3,15.7-3c4.7-3.3,7.5-8.4,8.2-13.7c5.4-0.2,10.6-2.5,14.4-6.9c3.7-4.4,5.1-10,4.3-15.3c5.1-1.5,9.6-5.2,12.1-10.4
		c2.4-5.2,2.3-11,0.2-15.9c4.6-2.8,8-7.5,9-13.2c1-5.7-0.6-11.2-3.9-15.5C232.1,118.1,234.2,112.7,233.7,106.9z"/>
	<g>
		<path class="st0" d="M157,56.8c-3,7.3-11.2,10.7-18.5,7.8c-7.2-3-10.7-11.2-7.8-18.5c3-7.2,11.2-10.7,18.5-7.8
			C156.5,41.3,159.9,49.6,157,56.8z"/>
		<path class="st0" d="M103.5,188.1c-3,7.2-11.2,10.7-18.5,7.8c-7.2-3-10.7-11.2-7.8-18.5c3-7.2,11.2-10.7,18.5-7.8
			C103,172.6,106.5,180.9,103.5,188.1z"/>
		<path class="st0" d="M195.9,149.2c-3,7.3-11.2,10.7-18.5,7.8c-7.2-3-10.7-11.2-7.8-18.5c3-7.2,11.2-10.7,18.5-7.8
			C195.4,133.7,198.8,142,195.9,149.2z"/>
		<path class="st0" d="M64.6,95.7c-3,7.3-11.2,10.7-18.5,7.8c-7.2-3-10.7-11.2-7.8-18.5c3-7.2,11.2-10.7,18.5-7.8
			C64.1,80.2,67.6,88.5,64.6,95.7z"/>
	</g>
	<g>
		<path class="st0" d="M190.1,70.3c-6.8,6.5-17.5,6.3-24-0.4c-6.5-6.8-6.3-17.5,0.4-24c6.8-6.5,17.5-6.3,24,0.4
			C197,53,196.8,63.8,190.1,70.3z"/>
		<path class="st0" d="M67.8,188.4c-6.8,6.5-17.5,6.3-24-0.4c-6.5-6.8-6.3-17.5,0.4-24c6.8-6.5,17.5-6.3,24,0.4
			C74.7,171.1,74.6,181.9,67.8,188.4z"/>
		<path class="st0" d="M188,190.5c-6.8,6.5-17.5,6.3-24-0.4c-6.5-6.8-6.3-17.5,0.4-24c6.8-6.5,17.5-6.3,24,0.4
			C194.9,173.2,194.8,184,188,190.5z"/>
		<path class="st0" d="M69.9,68.2c-6.8,6.5-17.5,6.3-24-0.4c-6.5-6.8-6.3-17.5,0.4-24c6.8-6.5,17.5-6.3,24,0.4
			C76.8,50.9,76.6,61.7,69.9,68.2z"/>
	</g>
	<g>
		<path class="st0" d="M110.4,76c1.6,4.2-0.6,8.9-4.8,10.5c-4.2,1.6-8.9-0.6-10.5-4.8c-1.6-4.2,0.6-8.9,4.8-10.5
			C104.1,69.6,108.9,71.8,110.4,76z"/>
		<path class="st0" d="M139.1,152.5c1.6,4.2-0.6,8.9-4.8,10.5c-4.2,1.6-8.9-0.6-10.5-4.8c-1.6-4.2,0.6-8.9,4.8-10.5
			C132.8,146.2,137.5,148.3,139.1,152.5z"/>
		<path class="st0" d="M163,99.9c1.6,4.2-0.6,8.9-4.8,10.5c-4.2,1.6-8.9-0.6-10.5-4.8c-1.6-4.2,0.6-8.9,4.8-10.5
			C156.8,93.5,161.5,95.7,163,99.9z"/>
		<path class="st0" d="M86.5,128.6c1.6,4.2-0.6,8.9-4.8,10.5c-4.2,1.6-8.9-0.6-10.5-4.8c-1.6-4.2,0.6-8.9,4.8-10.5
			C80.2,122.2,84.9,124.4,86.5,128.6z"/>
	</g>
</g>
</svg>
