<?xml version="1.0" encoding="utf-8"?>
<!-- Generator: Adobe Illustrator 26.1.0, SVG Export Plug-In . SVG Version: 6.00 Build 0)  -->
<svg version="1.1" id="Layer_1" xmlns="http://www.w3.org/2000/svg" xmlns:xlink="http://www.w3.org/1999/xlink" x="0px" y="0px"
	 viewBox="0 0 841.9 595.3" style="enable-background:new 0 0 841.9 595.3;" xml:space="preserve">
<style type="text/css">
	.st0{fill:none;stroke:#000000;stroke-miterlimit:10;}
</style>
<path class="st0" d="M426.1,291.3c0,2.8-2.3,5.1-5.1,5.1c-2.8,0-5.1-2.3-5.1-5.1c0-2.8,2.3-5.1,5.1-5.1c1.3,0,2.5,0.5,3.4,1.3
	C425.4,288.4,426.1,289.8,426.1,291.3z"/>
<path class="st0" d="M274.5,375.9c3.3,5.8,1.4,13.2-4.4,16.5c-5.8,3.3-13.2,1.4-16.5-4.4c-3.3-5.8-1.4-13.2,4.4-16.5
	C263.8,368.1,271.2,370.1,274.5,375.9z"/>
<path class="st0" d="M420.9,460.4c6.7,0,12.1,5.4,12.1,12.1s-5.4,12.1-12.1,12.1c-6.7,0-12.1-5.4-12.1-12.1S414.3,460.4,420.9,460.4
	z"/>
<path class="st0" d="M567.3,375.9c3.3-5.8,10.7-7.8,16.5-4.4c5.8,3.3,7.8,10.7,4.4,16.5c-3.3,5.8-10.7,7.8-16.5,4.4
	C566,389,564,381.6,567.3,375.9z"/>
<path class="st0" d="M567.3,206.8c-3.3-5.8-1.4-13.2,4.4-16.5c5.8-3.3,13.2-1.4,16.5,4.4c3.3,5.8,1.4,13.2-4.4,16.5
	C578.1,214.6,570.7,212.6,567.3,206.8z"/>
<path class="st0" d="M420.9,122.3c-6.7,0-12.1-5.4-12.1-12.1s5.4-12.1,12.1-12.1c6.7,0,12.1,5.4,12.1,12.1S427.6,122.3,420.9,122.3z
	"/>
<path class="st0" d="M274.5,206.8c-3.3,5.8-10.7,7.8-16.5,4.4c-5.8-3.3-7.8-10.7-4.4-16.5c3.3-5.8,10.7-7.8,16.5-4.4
	C275.9,193.7,277.9,201,274.5,206.8z"/>
<path class="st0" d="M272.6,331.1c1.6,5.9-1.9,11.9-7.8,13.4c-5.9,1.6-11.9-1.9-13.4-7.8c-1.6-5.9,1.9-11.9,7.8-13.4
	C265,321.8,271,325.2,272.6,331.1z"/>
<path class="st0" d="M312.3,400c4.3,4.3,4.3,11.2,0,15.5c-4.3,4.3-11.2,4.3-15.5,0c-4.3-4.3-4.3-11.2,0-15.5
	C301.1,395.7,308,395.7,312.3,400z"/>
<path class="st0" d="M381.2,439.7c5.9,1.6,9.3,7.6,7.8,13.4c-1.6,5.9-7.6,9.3-13.4,7.8c-5.9-1.6-9.3-7.6-7.8-13.4
	C369.3,441.6,375.3,438.1,381.2,439.7z"/>
<path class="st0" d="M460.7,439.7c5.9-1.6,11.9,1.9,13.4,7.8c1.6,5.9-1.9,11.9-7.8,13.4c-5.9,1.6-11.9-1.9-13.4-7.8
	C451.4,447.3,454.8,441.3,460.7,439.7z"/>
<path class="st0" d="M529.6,400c4.3-4.3,11.2-4.3,15.5,0c4.3,4.3,4.3,11.2,0,15.5c-4.3,4.3-11.2,4.3-15.5,0
	C525.3,411.2,525.3,404.2,529.6,400z"/>
<path class="st0" d="M569.3,331.1c1.6-5.9,7.6-9.3,13.4-7.8c5.9,1.6,9.3,7.6,7.8,13.4c-1.6,5.9-7.6,9.3-13.4,7.8
	C571.2,343,567.8,336.9,569.3,331.1z"/>
<path class="st0" d="M569.3,251.6c-1.6-5.9,1.9-11.9,7.8-13.4c5.9-1.6,11.9,1.9,13.4,7.8c1.6,5.9-1.9,11.9-7.8,13.4
	C576.9,260.9,570.9,257.4,569.3,251.6z"/>
<path class="st0" d="M529.6,182.7c-4.3-4.3-4.3-11.2,0-15.5c4.3-4.3,11.2-4.3,15.5,0c4.3,4.3,4.3,11.2,0,15.5
	C540.8,187,533.9,187,529.6,182.7z"/>
<path class="st0" d="M460.7,143c-5.9-1.6-9.3-7.6-7.8-13.4c1.6-5.9,7.6-9.3,13.4-7.8c5.9,1.6,9.3,7.6,7.8,13.4
	C472.6,141,466.6,144.5,460.7,143z"/>
<path class="st0" d="M381.2,143c-5.9,1.6-11.9-1.9-13.4-7.8c-1.6-5.9,1.9-11.9,7.8-13.4c5.9-1.6,11.9,1.9,13.4,7.8
	C390.5,135.4,387,141.4,381.2,143z"/>
<path class="st0" d="M312.3,182.7c-4.3,4.3-11.2,4.3-15.5,0c-4.3-4.3-4.3-11.2,0-15.5c4.3-4.3,11.2-4.3,15.5,0
	C316.6,171.5,316.6,178.4,312.3,182.7z"/>
<path class="st0" d="M272.6,251.6c-1.6,5.9-7.6,9.3-13.4,7.8c-5.9-1.6-9.3-7.6-7.8-13.4c1.6-5.9,7.6-9.3,13.4-7.8
	C270.7,239.7,274.1,245.7,272.6,251.6z"/>
<path class="st0" d="M227.6,343.1c2,7.6-2.5,15.5-10.1,17.5c-7.6,2-15.5-2.5-17.5-10.1c-2-7.6,2.5-15.5,10.1-17.5
	C217.7,331,225.5,335.5,227.6,343.1z"/>
<path class="st0" d="M279.4,432.9c5.6,5.6,5.6,14.6,0,20.2c-5.6,5.6-14.6,5.6-20.2,0c-5.6-5.6-5.6-14.6,0-20.2
	C264.7,427.3,273.8,427.3,279.4,432.9z"/>
<path class="st0" d="M369.1,484.7c7.6,2,12.2,9.9,10.1,17.5c-2,7.6-9.9,12.2-17.5,10.1c-7.6-2-12.2-9.9-10.1-17.5
	C353.7,487.2,361.5,482.7,369.1,484.7z"/>
<path class="st0" d="M472.8,484.7c7.6-2,15.5,2.5,17.5,10.1c2,7.6-2.5,15.5-10.1,17.5c-7.6,2-15.5-2.5-17.5-10.1
	C460.6,494.6,465.1,486.8,472.8,484.7z"/>
<path class="st0" d="M562.5,432.9c5.6-5.6,14.6-5.6,20.2,0c5.6,5.6,5.6,14.6,0,20.2c-5.6,5.6-14.6,5.6-20.2,0
	C556.9,447.5,556.9,438.5,562.5,432.9z"/>
<path class="st0" d="M614.3,343.1c2-7.6,9.9-12.2,17.5-10.1c7.6,2,12.2,9.9,10.1,17.5c-2,7.6-9.9,12.1-17.5,10.1
	C616.8,358.6,612.3,350.8,614.3,343.1z"/>
<path class="st0" d="M614.3,239.5c-2-7.6,2.5-15.5,10.1-17.5c7.6-2,15.5,2.5,17.5,10.1c2,7.6-2.5,15.5-10.1,17.5
	C624.2,251.7,616.4,247.1,614.3,239.5z"/>
<path class="st0" d="M562.5,149.8c-5.6-5.6-5.6-14.6,0-20.2c5.6-5.6,14.6-5.6,20.2,0c5.6,5.6,5.6,14.6,0,20.2
	C577.1,155.4,568.1,155.4,562.5,149.8z"/>
<path class="st0" d="M472.8,98c-7.6-2-12.2-9.9-10.1-17.5c2-7.6,9.9-12.2,17.5-10.1c7.6,2,12.2,9.9,10.1,17.5
	C488.2,95.5,480.4,100,472.8,98z"/>
<path class="st0" d="M369.1,98c-7.6,2-15.5-2.5-17.5-10.1c-2-7.6,2.5-15.5,10.1-17.5c7.6-2,15.5,2.5,17.5,10.1
	C381.3,88.1,376.8,95.9,369.1,98z"/>
<path class="st0" d="M279.4,149.8c-5.6,5.6-14.6,5.6-20.2,0c-5.6-5.6-5.6-14.6,0-20.2c5.6-5.6,14.6-5.6,20.2,0
	C285,135.1,285,144.2,279.4,149.8z"/>
<path class="st0" d="M227.6,239.5c-2,7.6-9.9,12.2-17.5,10.1c-7.6-2-12.2-9.9-10.1-17.5c2-7.6,9.9-12.1,17.5-10.1
	C225.1,224.1,229.6,231.9,227.6,239.5z"/>
<path class="st0" d="M616.6,404.3c4.3-7.4,13.6-10.1,21.1-6.4c13.6-27.6,22.1-58.2,24.2-90.5c-8.4-0.6-15.1-7.5-15.1-16.1
	c0-8.5,6.7-15.5,15.1-16.1c-2.1-32.3-10.6-62.9-24.2-90.5c-7.6,3.8-16.8,1-21.1-6.4c-4.3-7.4-2-16.8,5-21.5
	c-17.6-26.2-40.1-48.7-66.2-66.2c-4.7,7-14.1,9.3-21.5,5c-7.4-4.3-10.1-13.6-6.4-21.1C499.9,61,469.3,52.5,437,50.4
	c-0.6,8.4-7.5,15.1-16.1,15.1c-8.5,0-15.5-6.7-16.1-15.1C372.6,52.5,342,61,314.4,74.6c3.8,7.6,1,16.8-6.4,21.1
	c-7.4,4.3-16.8,2-21.5-5c-26.2,17.6-48.7,40.1-66.2,66.2c7,4.7,9.3,14.1,5,21.5c-4.3,7.4-13.6,10.1-21.1,6.4
	c-13.6,27.6-22.1,58.2-24.2,90.5c8.4,0.6,15.1,7.5,15.1,16.1c0,8.5-6.7,15.5-15.1,16.1c2.1,32.3,10.6,62.9,24.2,90.5
	c7.6-3.8,16.8-1,21.1,6.4c4.3,7.4,2,16.8-5,21.5c17.6,26.2,40.1,48.7,66.2,66.2c4.7-7,14.1-9.3,21.5-5c7.4,4.3,10.1,13.6,6.4,21.1
	c27.6,13.6,58.2,22.1,90.5,24.2c0.6-8.4,7.5-15.1,16.1-15.1c8.5,0,15.5,6.7,16.1,15.1c32.3-2.1,62.9-10.6,90.5-24.2
	c-3.8-7.6-1-16.8,6.4-21.1c7.4-4.3,16.8-2,21.5,5c26.2-17.6,48.7-40.1,66.2-66.2C614.6,421.1,612.3,411.7,616.6,404.3z"/>
<path class="st0" d="M420.9,203.6c-5.5,0-9.9-4.4-9.9-9.9c0-5.5,4.4-9.9,9.9-9.9c5.5,0,9.9,4.4,9.9,9.9
	C430.9,199.2,426.4,203.6,420.9,203.6z"/>
<path class="st0" d="M420.9,203.6c-5.5,0-9.9-4.4-9.9-9.9c0-5.5,4.4-9.9,9.9-9.9c5.5,0,9.9,4.4,9.9,9.9
	C430.9,199.2,426.4,203.6,420.9,203.6z"/>
<path class="st0" d="M483,229.3c-3.9-3.9-3.9-10.2,0-14c3.9-3.9,10.2-3.9,14,0c3.9,3.9,3.9,10.2,0,14
	C493.1,233.2,486.8,233.2,483,229.3z"/>
<path class="st0" d="M483,229.3c-3.9-3.9-3.9-10.2,0-14c3.9-3.9,10.2-3.9,14,0c3.9,3.9,3.9,10.2,0,14
	C493.1,233.2,486.8,233.2,483,229.3z"/>
<path class="st0" d="M508.7,291.3c0-5.5,4.4-9.9,9.9-9.9c5.5,0,9.9,4.4,9.9,9.9c0,5.5-4.4,9.9-9.9,9.9
	C513.1,301.3,508.7,296.8,508.7,291.3z"/>
<path class="st0" d="M508.7,291.3c0-5.5,4.4-9.9,9.9-9.9c5.5,0,9.9,4.4,9.9,9.9c0,5.5-4.4,9.9-9.9,9.9
	C513.1,301.3,508.7,296.8,508.7,291.3z"/>
<path class="st0" d="M333.2,291.3c0,5.5-4.4,9.9-9.9,9.9c-5.5,0-9.9-4.4-9.9-9.9c0-5.5,4.4-9.9,9.9-9.9
	C328.8,281.4,333.2,285.9,333.2,291.3z"/>
<path class="st0" d="M358.9,229.3c-3.9,3.9-10.2,3.9-14,0c-3.9-3.9-3.9-10.2,0-14c3.9-3.9,10.2-3.9,14,0
	C362.8,219.2,362.8,225.4,358.9,229.3z"/>
<path class="st0" d="M358.9,229.3c-3.9,3.9-10.2,3.9-14,0c-3.9-3.9-3.9-10.2,0-14c3.9-3.9,10.2-3.9,14,0
	C362.8,219.2,362.8,225.4,358.9,229.3z"/>
<path class="st0" d="M421,379c5.5,0,9.9,4.4,9.9,9.9c0,5.5-4.4,9.9-9.9,9.9c-5.5,0-9.9-4.4-9.9-9.9C411,383.5,415.5,379,421,379z"/>
<path class="st0" d="M421,379c5.5,0,9.9,4.4,9.9,9.9c0,5.5-4.4,9.9-9.9,9.9c-5.5,0-9.9-4.4-9.9-9.9C411,383.5,415.5,379,421,379z"/>
<path class="st0" d="M358.9,353.4c3.9,3.9,3.9,10.2,0,14c-3.9,3.9-10.2,3.9-14,0c-3.9-3.9-3.9-10.2,0-14
	C348.8,349.5,355.1,349.5,358.9,353.4z"/>
<path class="st0" d="M358.9,353.4c3.9,3.9,3.9,10.2,0,14c-3.9,3.9-10.2,3.9-14,0c-3.9-3.9-3.9-10.2,0-14
	C348.8,349.5,355.1,349.5,358.9,353.4z"/>
<path class="st0" d="M483,353.4c3.9-3.9,10.2-3.9,14,0c3.9,3.9,3.9,10.2,0,14c-3.9,3.9-10.2,3.9-14,0
	C479.1,363.5,479.1,357.2,483,353.4z"/>
<path class="st0" d="M483,353.4c3.9-3.9,10.2-3.9,14,0c3.9,3.9,3.9,10.2,0,14c-3.9,3.9-10.2,3.9-14,0
	C479.1,363.5,479.1,357.2,483,353.4z"/>
</svg>
